<svg width="0" height="0" xmlns="http://www.w3.org/2000/svg">
    <symbol id="ekp" viewBox="0 0 33 15">
        <path d="M-3144.9,986.891h-28.134a2.427,2.427,0,0,0-2.564,2.256V999.97a2.425,2.425,0,0,0,2.564,2.256h28.134a2.429,2.429,0,0,0,2.566-2.256V989.147A2.429,2.429,0,0,0-3144.9,986.891Zm-20.944,8.564h-2.42v2.416h-1.792v-2.416h-2.418v-1.792h2.418v-2.418h1.792v2.418h2.42Zm9.2,1.943-1.943,1.8h-5.955v-1.79h5.146l.779-.734v-1.223h-4.353v-1.792h4.353v-1.225l-.779-.734h-5.146v-1.792h5.955l1.943,1.807Zm8.821,1.8-2.843-3.746h-1.619V999.2h-1.975v-9.288h1.975v3.75h1.493l2.72-3.75h2.365l-3.392,4.523,3.642,4.765Z" transform="translate(3175.598 -986.891)"/>
    </symbol>
    <symbol id="download" viewBox="0 0 19 18">
        <path d="M14.6802 7.3178L13.0546 5.6035L10.7198 8.06691V0.000976562H8.42139V8.21777L5.94269 5.6035L4.31805 7.3178L9.49851 12.7838L14.6802 7.3178Z"/>
        <path d="M16.7005 6.57073V15.5708H2.29842V6.57073H0V17.9959H18.9989V6.57073H16.7005Z"/>
    </symbol>
</svg>