<svg width="0" height="0" xmlns="http://www.w3.org/2000/svg">
    <symbol id="btn" viewBox="0 0 42 34">
        <path d="M24.375 5.15C22.2 4.25 19.875 4.25 17.775 5.075C17.625 5.075 12.75 7.55 8.85005 3.5L6.30005 0.5V5.225C6.30005 9.5 11.025 9.575 11.25 9.65C14.925 10.25 18.15 12.35 20.175 15.425L20.925 16.475L21.675 15.425C23.7 12.35 27 10.25 30.6 9.65C30.75 9.575 35.55 9.5 35.55 5.225V0.575L32.925 3.5C30.675 5.675 27.375 6.35 24.375 5.15Z" fill="white"/>
        <path d="M27.7497 20.9752C31.0497 20.9752 33.8247 18.2752 33.8247 14.9752C33.8247 13.5502 33.2997 12.2002 32.3247 11.0752C31.3497 11.3002 31.4247 11.2252 30.2247 11.4502C31.3497 12.2002 32.0247 13.4752 32.0247 14.9002C32.0247 17.2252 30.0747 19.1752 27.7497 19.1752C27.1497 19.1752 26.5497 19.0252 25.9497 18.8002C25.7247 19.3252 25.3497 19.7752 24.9747 20.2252C25.8747 20.7502 26.7747 20.9752 27.7497 20.9752Z" fill="white"/>
        <path d="M20.9248 22.0249L22.9498 20.1499C23.6248 19.4749 24.1498 18.7249 24.5248 17.8249C23.9998 17.2249 23.6248 16.5499 23.5498 15.7249C23.3998 15.9499 23.1748 16.1749 23.0248 16.3999L20.8498 19.6249L18.7498 16.3999C18.5998 16.1749 18.4498 15.9499 18.2248 15.7249C18.0748 16.4749 17.6998 17.2249 17.2498 17.8249C17.6248 18.7249 18.1498 19.4749 18.8248 20.1499L20.9248 22.0249Z" fill="white"/>
        <path d="M8.02466 14.9752C8.02466 18.2752 10.7997 20.9752 14.0997 20.9752C15.0747 20.9752 15.9747 20.7502 16.7997 20.3002C16.4247 19.8502 16.1247 19.3252 15.8247 18.8752C15.2997 19.1002 14.6997 19.2502 14.0247 19.2502C11.6997 19.2502 9.74966 17.3002 9.74966 14.9752C9.74966 13.5502 10.4997 12.2752 11.5497 11.5252C10.2747 11.2252 10.4247 11.3752 9.52466 11.0752C8.54966 12.1252 8.02466 13.4752 8.02466 14.9752Z" fill="white"/>
        <path d="M27.7498 22.6999C26.3248 22.6999 25.0498 22.3249 23.8498 21.6499L20.9248 24.3499L17.9998 21.6499C16.7998 22.3249 15.5248 22.6999 14.0998 22.6999C9.8248 22.6999 6.2998 19.2499 6.2998 14.9749V22.9999C6.2998 25.8499 8.5498 28.0999 11.3998 28.0999H30.4498C33.2998 28.0999 35.5498 25.8499 35.5498 22.9999V14.9749C35.5498 19.2499 32.0248 22.6999 27.7498 22.6999Z" fill="white"/>
        <path d="M26.4748 16.0999C26.4748 16.0999 25.9498 13.9999 28.0498 13.9249C30.1498 13.7749 29.8498 15.8749 29.8498 15.8749" stroke="white" stroke-width="2.2677" stroke-miterlimit="10"/>
        <path d="M11.9996 15.8749C11.9996 15.8749 11.7746 13.7749 13.7996 13.9249C15.8246 14.0749 15.3746 16.0999 15.3746 16.0999" stroke="white" stroke-width="2.2677" stroke-miterlimit="10"/>
        <path d="M17.6248 33.1249L25.6498 28.0999H16.1248V32.2999C16.1248 33.0499 16.9498 33.5749 17.6248 33.1249Z" fill="white"/>
        <path d="M3.75 19.5501V9.65015C1.65 9.65015 0 11.3001 0 13.4001V15.8001C0 17.9001 1.65 19.5501 3.75 19.5501Z" fill="white"/>
        <path d="M38.0251 9.6499V19.5499C40.1251 19.5499 41.7751 17.8999 41.7751 15.7999V13.3999C41.7751 11.3749 40.1251 9.6499 38.0251 9.6499Z" fill="white"/>
    </symbol>
    <symbol id="zoom" viewBox="0 0 17 17">
        <path d="M0.999023 11.4991V15.999H5.49891" stroke-width="1.5"/>
        <path d="M6.99888 9.99963L0.999023 15.9995" stroke-width="1.5"/>
        <path d="M15.9988 5.50037L15.9988 1.00048L11.4989 1.00048" stroke-width="1.5"/>
        <path d="M15.9984 1.00024L9.99854 7.0001" stroke-width="1.5"/>
        <path d="M11.4988 16.0005L15.9987 16.0005L15.9987 11.5006" stroke-width="1.5"/>
        <path d="M9.99853 10.0004L15.9984 16.0002" stroke-width="1.5"/>
        <path d="M5.49902 0.999878L0.999134 0.999878L0.999133 5.49977" stroke-width="1.5"/>
        <path d="M0.999023 1.00051L6.99888 7.00037" stroke-width="1.5"/>
    </symbol>
    <symbol id="owl" viewBox="0 0 40 35">
        <path d="M20.1583 1.77808C20.2851 1.77808 20.4119 1.77808 20.5387 1.77808H20.6021H20.6655C25.2931 2.03211 28.0823 4.50889 28.0823 4.50889L29.0331 5.39799L30.1742 4.82643C30.1742 4.82643 32.0125 3.87382 34.675 3.6833C34.1679 4.95344 33.6607 6.60463 33.4705 8.70038L33.4072 9.52597L34.0411 10.161C34.1045 10.2246 37.4642 13.6539 38.3517 17.6549C38.0981 18.9251 36.8937 24.1962 31.8858 27.054L30.8715 24.1327L28.7162 26.673C28.6528 26.7365 25.3564 30.6104 20.0316 32.1981C14.7701 30.6104 11.3469 26.7365 11.3469 26.673L9.19163 24.1327L8.30415 27.1175C3.35961 24.1962 2.09179 18.9251 1.90161 17.6549C2.78909 13.7175 6.14884 10.2246 6.21223 10.161L6.84614 9.52597L6.78275 8.70038C6.59258 6.66814 6.08545 4.95344 5.57831 3.6833C8.17736 3.87382 10.0157 4.82643 10.0157 4.82643L11.1568 5.39799L12.1076 4.50889C12.1076 4.50889 14.8969 1.9686 19.5244 1.77808H19.5878H19.6512C19.778 1.77808 19.9048 1.77808 20.0316 1.77808C20.095 1.77808 20.095 1.77808 20.1583 1.77808C20.1583 1.77808 20.095 1.77808 20.1583 1.77808Z" fill="#948A82"/>
        <path d="M32.9004 12.0029C32.9004 12.0029 34.929 13.2731 34.8022 16.2579C34.6754 19.2428 32.9004 21.4655 30.0478 22.2276C27.1952 22.9897 22.7578 20.6399 22.7578 20.6399L23.5185 18.0361L27.1318 19.3063L30.6184 18.0361L32.1397 15.3688L31.4424 12.7015L32.9004 12.0029Z" fill="white"/>
        <path d="M7.03635 12.0029C7.03635 12.0029 5.00783 13.2731 5.13461 16.2579C5.32479 19.2428 7.03635 21.4655 9.88897 22.2276C12.7416 22.9897 17.179 20.5764 17.179 20.5764L16.4183 17.9726L12.805 19.2428L9.31845 17.9726L7.79705 15.3053L8.49436 12.638L7.03635 12.0029Z" fill="white"/>
        <path d="M31.8224 13.9714C31.8224 13.9714 33.0269 12.3837 34.4215 11.9392C34.4215 11.9392 36.6402 14.797 36.3866 16.1942C36.1964 17.6548 35.2456 17.8453 35.0554 19.6235C34.8652 21.4018 35.2456 21.8463 34.1045 22.4814C32.9635 23.1164 29.2868 24.4501 26.8779 26.1648C24.469 27.8795 20.095 29.4037 20.095 29.4037L17.3058 31.817L20.412 32.8331L27.9555 28.9591L30.4278 26.3553L31.5055 28.324L36.45 23.688L39.049 17.6548L36.9571 11.8121L34.1045 9.14484L34.2313 6.98559C34.2313 6.98559 31.4421 9.14484 28.6528 10.161C25.8636 11.1771 22.8208 11.3676 22.8208 11.3676C22.8208 11.3676 23.328 8.70029 25.2931 6.92208L26.5609 5.14388C26.5609 5.14388 24.2788 2.85761 20.095 2.54008C15.9112 2.22254 16.7353 1.26993 16.7353 1.26993L21.4896 0.952393L28.7796 3.87373L22.7574 8.31924L19.9682 12.3202L22.4405 14.0349L28.7162 11.9392L30.6814 11.3041L31.8224 13.9714Z" fill="#57514C"/>
        <path d="M8.24078 13.9714C8.24078 13.9714 7.03635 12.3837 5.64174 11.9392C5.64174 11.9392 3.42303 14.797 3.6766 16.1942C3.93017 17.5913 4.81765 17.8453 5.00782 19.6235C5.198 21.4018 4.81765 21.8463 5.95869 22.4814C7.09974 23.1164 10.7764 24.4501 13.1853 26.1648C15.5942 27.8795 19.9682 29.4037 19.9682 29.4037L22.7574 31.817L19.6512 32.8331L12.1077 28.9591L9.6354 26.3553L8.55774 28.324L3.61321 23.688L1.01416 17.6548L3.10608 11.8121L5.95869 9.14484L5.83191 6.98559C5.83191 6.98559 8.62113 9.14484 11.4104 10.161C14.1996 11.1771 17.2424 11.3676 17.2424 11.3676C17.2424 11.3676 16.7352 8.70029 14.7701 6.92208L13.5023 5.14388C13.5023 5.14388 15.7844 2.85761 19.9682 2.54008C24.152 2.22254 23.2646 1.26993 23.2646 1.26993L18.5102 0.952393L11.2836 3.87373L17.3058 8.31924L20.095 12.3202L17.6227 14.0349L11.347 11.9392L9.38183 11.3041L8.24078 13.9714Z" fill="#57514C"/>
        <path d="M20.1585 1.77821C20.2853 1.77821 20.412 1.77821 20.5388 1.77821H20.6022H20.6656C25.2932 2.03223 28.0824 4.50902 28.0824 4.50902L29.0333 5.39812L30.1743 4.82656C30.1743 4.82656 32.0127 3.87395 34.6751 3.68343C34.168 4.95357 33.6609 6.60476 33.4707 8.7005L33.4073 9.5261L34.0412 10.1612C34.1046 10.2247 37.4643 13.6541 38.3518 17.655C38.0983 18.9252 36.8938 24.1963 31.8859 27.0541L30.8716 24.1328L28.7163 26.6731C28.6529 26.7366 25.3566 30.6105 20.0317 32.1982C14.7702 30.6105 11.3471 26.7366 11.3471 26.6731L9.19176 24.1328L8.30428 27.1176C3.35975 24.1963 2.09192 18.9252 1.90174 17.655C2.78922 13.7176 6.14897 10.2247 6.21236 10.1612L6.84628 9.5261L6.78288 8.7005C6.59271 6.66827 6.08558 4.95357 5.57845 3.68343C8.1775 3.87395 10.0158 4.82656 10.0158 4.82656L11.1569 5.39812L12.1078 4.50902C12.1078 4.50902 14.897 1.96873 19.5246 1.77821H19.588H19.6513C19.7781 1.77821 19.9049 1.77821 20.0317 1.77821C20.0951 1.77821 20.0951 1.77821 20.1585 1.77821C20.1585 1.77821 20.0951 1.77821 20.1585 1.77821ZM20.1585 0C20.0951 0 20.0951 0 20.0317 0C19.9683 0 19.9683 0 19.9049 0C19.7147 0 19.5246 0 19.3344 0C13.8827 0.254029 10.7765 3.23887 10.7765 3.23887C10.7765 3.23887 8.1775 1.90522 4.50079 1.90522C3.86688 1.90522 3.23296 1.96873 2.53566 2.03223C2.53566 2.03223 4.4374 4.44551 4.88114 8.95453C4.88114 8.95453 0.88748 12.9555 0 17.655C0 17.655 1.14105 26.7366 9.95246 29.8484C9.95246 29.8484 9.69889 28.7053 9.95246 27.8162C9.95246 27.8162 13.8193 32.3887 19.9683 34.0399V33.7859V34.0399C26.1173 32.3887 29.9842 27.8162 29.9842 27.8162C30.2377 28.7053 29.9842 29.8484 29.9842 29.8484C38.859 26.7366 40 17.655 40 17.655C39.1125 12.9555 35.1189 8.95453 35.1189 8.95453C35.5626 4.50902 37.4643 2.03223 37.4643 2.03223C36.8938 1.96873 36.1965 1.90522 35.5626 1.90522C31.8859 1.90522 29.2868 3.30238 29.2868 3.30238C29.2868 3.30238 26.1173 0.317537 20.729 0.0635073C20.5388 0 20.3487 0 20.1585 0Z" fill="#0E265B"/>
        <path d="M15.7209 6.54108C15.7209 6.54108 16.6084 4.88989 20.095 4.88989C23.5815 4.88989 24.5957 6.54108 24.5957 6.54108L19.9682 10.0975L15.7209 6.54108Z" fill="white"/>
        <path d="M16.3547 17.9092L17.686 20.5765L20.1582 22.8628L22.7573 20.5765L23.5814 17.9092L22.5037 14.0353L20.0314 12.3206L17.5592 14.0353L16.3547 17.9092Z" fill="#C07335"/>
        <path d="M34.1041 8.50985C34.1041 8.50985 32.1389 9.77999 30.1738 10.7961C28.2086 11.8122 22.3766 14.2255 20.982 12.3838C19.5874 10.5421 26.9408 6.60463 28.906 5.4615C30.8711 4.31836 29.2229 3.30225 29.2229 3.30225C26.4337 4.44538 20.4749 8.76388 20.0312 9.08141C19.5874 8.76388 13.692 4.44538 10.8394 3.30225C10.8394 3.30225 9.12782 4.38187 11.1564 5.525C13.1849 6.66813 20.4749 10.6056 19.0803 12.4473C17.6857 14.289 11.8537 11.8757 9.88852 10.8596C7.92339 9.8435 5.95825 8.57336 5.95825 8.57336L6.27521 10.2881L8.49391 12.0663C7.16269 13.781 7.03591 17.4644 10.1421 19.2426C13.1849 21.0208 16.1643 18.9886 16.1643 18.9886C16.5446 21.2748 19.9678 23.4976 20.0945 23.4341C20.1579 23.4976 23.5811 21.2748 24.0248 18.9886C24.0248 18.9886 26.9408 21.0208 30.047 19.2426C33.0898 17.4644 33.0264 13.781 31.6952 12.0663L33.9139 10.2881L34.1041 8.50985ZM20.0312 21.9734C17.4955 20.9573 17.1151 18.3535 17.1151 18.3535C18.1928 14.162 19.5874 13.7174 20.0312 13.6539C20.4749 13.7174 21.8061 14.162 22.9472 18.3535C22.9472 18.3535 22.5668 20.8938 20.0312 21.9734Z" fill="#0E265B"/>
        <path d="M19.905 29.4672C19.905 29.4672 20.4122 27.689 23.3282 26.6729C26.2442 25.6567 31.7592 23.6245 31.7592 23.6245L20.1586 30.5468L19.905 29.4672Z" fill="#57514C"/>
        <path d="M20.0314 29.4672C20.0314 29.4672 19.5243 27.689 16.6083 26.6729C13.6923 25.6567 8.17725 23.6245 8.17725 23.6245L19.7779 30.5468L20.0314 29.4672Z" fill="#57514C"/>
        <path d="M30.0478 12.0029C30.0478 12.0029 30.9986 13.2096 31.062 15.1148C31.1254 17.02 28.8433 19.2428 26.1809 18.6077C23.5184 17.9726 23.0747 14.6702 23.0747 14.6702C23.0747 14.6702 25.547 14.0987 27.1318 13.4001C28.7799 12.638 30.0478 12.0029 30.0478 12.0029Z" fill="white"/>
        <path d="M24.5957 13.7813C24.5957 13.7813 24.9127 16.3851 27.1948 15.7501C29.4768 15.115 28.1456 12.5747 28.1456 12.5747L24.5957 13.7813Z" fill="#0E265B"/>
        <path d="M9.88909 12.0029C9.88909 12.0029 9.065 13.0826 9.00161 14.9878C8.93822 16.893 11.0935 19.2428 13.756 18.6077C16.4184 17.9726 16.8621 14.6702 16.8621 14.6702C16.8621 14.6702 14.3899 14.0987 12.8051 13.4001C11.2203 12.7015 9.88909 12.0029 9.88909 12.0029Z" fill="white"/>
        <path d="M15.3407 13.7813C15.3407 13.7813 15.0237 16.3851 12.7416 15.7501C10.4595 15.115 11.7908 12.5747 11.7908 12.5747L15.3407 13.7813Z" fill="#0E265B"/>
        <path d="M35.9431 2.79395L34.2315 7.17595L31.1887 6.54088L32.1396 2.79395H35.9431Z" fill="#0E265B"/>
        <path d="M33.5343 7.62035C33.5343 7.62035 33.5977 6.22319 34.8021 4.69901C34.8021 4.69901 33.2174 5.01655 31.8227 6.28669C31.8227 6.28669 32.3933 4.82603 34.8021 3.11133C34.8021 3.11133 32.4567 3.23834 28.9067 5.4611L33.5343 7.62035Z" fill="#948A82"/>
        <path d="M4.12036 2.79419L5.83193 7.1762L8.87472 6.54112L7.92385 2.79419H4.12036Z" fill="#0E265B"/>
        <path d="M6.52955 7.62035C6.52955 7.62035 6.46616 6.22319 5.26172 4.69901C5.26172 4.69901 6.8465 5.01655 8.24112 6.28669C8.24112 6.28669 7.67059 4.82603 5.26172 3.11133C5.26172 3.11133 7.6072 3.23834 11.1571 5.4611L6.52955 7.62035Z" fill="#948A82"/>
        <path d="M24.2788 8.2561C22.2503 9.78028 21.553 11.749 22.7574 11.622C24.0253 11.4315 24.2788 8.2561 24.2788 8.2561Z" fill="#948A82"/>
        <path d="M15.7842 8.2561C17.8127 9.78028 18.51 11.749 17.3056 11.622C16.1011 11.495 15.7842 8.2561 15.7842 8.2561Z" fill="#948A82"/>
        <path d="M20.158 15.5593C20.0946 15.5593 20.0312 15.5593 20.0312 15.5593C19.5241 15.6228 17.559 15.9404 18.1295 17.8456C18.7634 20.0048 20.0946 21.148 20.0946 21.148C20.0946 21.148 21.4259 19.9413 22.0598 17.8456C22.6303 15.9404 20.6652 15.6228 20.158 15.5593Z" fill="#FB9C50"/>
    </symbol>
    <symbol id="admin" viewBox="0 0 21 21">
        <path d="M16.5002 16.1004C16.369 16.561 16.2745 17.0373 16.0961 17.4822C15.1778 19.8113 12.848 21.2193 10.4238 20.9733C7.78436 20.7063 5.77988 18.8116 5.38633 16.2732C5.3391 15.9801 5.32336 15.687 5.32336 15.3886C5.31812 13.2793 5.31287 11.1648 5.32861 9.05554C5.33386 8.57402 5.38108 8.08203 5.48603 7.61097C5.82186 6.06696 6.94479 5.26093 8.52948 5.37607C9.29034 5.43365 10.0197 5.62207 10.7281 5.89947C10.8331 5.94134 10.98 5.94134 11.0902 5.89947C12.0032 5.55403 12.9267 5.29233 13.9132 5.39178C15.1621 5.51739 15.9597 6.1821 16.2798 7.40161C16.4057 7.8779 16.4792 8.37513 16.4897 8.86712C16.5159 10.5525 16.5054 12.2378 16.4949 13.9231C16.4949 14.0226 16.4215 14.1534 16.3427 14.211C15.6658 14.682 14.9732 15.1374 14.291 15.598C13.7768 15.9434 13.2153 16.1214 12.5962 16.1161C12.1974 16.1109 11.7933 16.1109 11.3945 16.1161C10.8803 16.1214 10.5392 16.4354 10.534 16.896C10.534 17.3566 10.875 17.6706 11.3893 17.6759C11.7986 17.6811 12.2079 17.6759 12.6171 17.6759C13.5879 17.6811 14.4642 17.3828 15.2566 16.8332C15.6396 16.5663 16.0332 16.315 16.4215 16.0533C16.4477 16.0743 16.4739 16.09 16.5002 16.1004Z"/>
        <path d="M3.21899 6.21344C3.60205 3.63833 4.74597 1.58662 7.31191 0.649743C9.68895 -0.219094 12.1185 -0.208626 14.4955 0.639275C16.6889 1.42437 17.901 3.094 18.4258 5.30273C18.4992 5.6063 18.5464 5.90987 18.6094 6.23437C18.2578 6.23437 17.9378 6.24484 17.6229 6.22914C17.56 6.2239 17.4812 6.14539 17.4445 6.07735C16.5262 4.36585 15.0307 3.71684 13.1732 3.83722C12.4805 3.88433 11.7984 4.09892 11.1057 4.22977C10.9798 4.25594 10.8329 4.26117 10.7069 4.22453C9.605 3.88956 8.49256 3.68544 7.3434 3.89479C6.03156 4.13556 5.04507 4.83167 4.41539 6.01455C4.33143 6.17156 4.24222 6.24484 4.05857 6.23437C3.80145 6.21867 3.53908 6.23437 3.27672 6.23961C3.27147 6.24484 3.26097 6.23961 3.21899 6.21344Z"/>
        <path d="M3.7862 7.81027C3.7862 10.4953 3.7862 13.1594 3.7862 15.8392C3.04633 15.8444 2.44288 15.6193 1.9234 15.1797C1.24649 14.6144 0.894922 13.8817 0.884427 12.9971C0.873932 12.1702 0.868685 11.3484 0.889674 10.5215C0.931653 9.03502 2.2225 7.7998 3.70749 7.7998C3.74422 7.80504 3.77571 7.81027 3.7862 7.81027Z"/>
        <path d="M18.0339 15.8391C18.0339 13.1541 18.0339 10.5004 18.0339 7.81543C18.4117 7.76309 18.8158 7.85206 19.1936 8.03002C20.285 8.53248 20.8885 9.39084 20.9357 10.5947C20.9672 11.4268 20.9567 12.259 20.9357 13.0965C20.9042 14.5096 19.7551 15.7187 18.3488 15.8391C18.2648 15.8443 18.1809 15.8391 18.0339 15.8391Z"/>
    </symbol>
</svg>