<svg width="0" height="0" xmlns="http://www.w3.org/2000/svg">
    <symbol id="play" viewBox="0 0 32 22">
        <g clip-path="url(#clip0)">
            <path d="M20.967 0.490143H11.0345C8.23925 0.493515 5.55974 1.60185 3.5831 3.57207C1.60647 5.54229 0.494397 8.21355 0.490753 11C0.494397 13.7863 1.60644 16.4575 3.5831 18.4276C5.55976 20.3976 8.23934 21.5057 11.0345 21.5089H20.967C23.7619 21.5057 26.4412 20.3975 28.4174 18.4274C30.3936 16.4572 31.505 13.7861 31.5079 11C31.5047 8.2139 30.3935 5.54278 28.4174 3.57254C26.4413 1.60229 23.7619 0.493775 20.967 0.490143ZM12.7065 16.9357V4.70447L21.8587 10.8186L12.7065 16.9357Z" stroke-linecap="round" stroke-linejoin="round"/>
        </g>
        <defs>
            <clipPath id="clip0">
                <rect width="32" height="22"/>
            </clipPath>
        </defs>
    </symbol>
    <symbol id="str" viewBox="0 0 13 22">
        <path d="M6.73471 21.4532L6.73471 0"/>
        <path d="M12.6466 15.1669L6.50054 21.2936L0.354254 15.1669"/>
    </symbol>
</svg>